# xmcd CD database file
#
# Track frame offsets:
#	150
#	11126
#	21803
#	33268
#	44533
#	55662
#	67832
#	80274
#	91749
#	104252
#	117013
#	128712
#	139069
#	149204
#	161888
#	172513
#	183414
#	194370
#	205419
#	216184
#	227328
#	238330
#	250838
#	262288
#	272902
#	283383
#	293678
#	306322
#
# Disc length: 4229 seconds
#
# Revision: 0
# Processed by: cddbd v1.5.2PL0 Copyright (c) Steve Scherf et al.
# Submitted via: CDex 2.13
#
DISCID=a010831c
DTITLE=Various Artist - The Specialty Label
DYEAR=1900
DGENRE=Country
TTITLE0=Claud King and His Hillbilly Ramblers - She's My Baby
TTITLE1=Claud King and His Hillbilly Ramblers - She Knows Why
TTITLE2=Shot Jackson and His String Banc - I'm Trading You In On A Later Model
TTITLE3=Shot Jackson and His String Banc - If The Truth Was Known
TTITLE4=Leo Stancil - Suit Hangin' Around
TTITLE5=Leo Stancil - Build A Fence Around My Broken Heart
TTITLE6=Claud King and His Hillbilly Ramblers - So Close To Me
TTITLE7=Claud King and His Hillbilly Ramblers - Take It Like A Man
TTITLE8=Biff Dollie - Don't Talk About Love
TTITLE9=Biff Dollie - Everybody Wants Me But You
TTITLE10=Shot Jackson and His String Band - You Can't Get The Country Out OF The Boy
TTITLE11=Shot Jackson and His String Band - Grandad He's Not Old
TTITLE12=Claud King and His Hillbilly Ramblers - Got The World By The Tail
TTITLE13=Claud King and His Hillbilly Ramblers - Slow Thinking Heart
TTITLE14=Jerry Green - I'll Find A Way
TTITLE15=Jerry Green - Naggin' Women and Braggin' Men
TTITLE16=Johnny Tyler - Take Your Blues And Go
TTITLE17=Johnny Tyler - A Sinner's Song
TTITLE18=Jerry Green - Are You Goin' My Way
TTITLE19=Jerry Green - Maybe Someone Else
TTITLE20="Smokey" Stover - What A Shame
TTITLE21="Smokey" Stover - Because I Loved Her So
TTITLE22=Claud King and His Hillbilly Ramblers - I Think Of You And Me
TTITLE23=Claud King and His Hillbilly Ramblers - Now That I Love you
TTITLE24=Johnny Tyler - Hillbilly Preacher
TTITLE25=Johnny Tyler - I'm Grateful To You
TTITLE26=Eamey Vandagriff - Wishing Is All I Do
TTITLE27=Joyce lowrance and Eamey Vandagriff - Hush Money
EXTD=
EXTT0=
EXTT1=
EXTT2=
EXTT3=
EXTT4=
EXTT5=
EXTT6=
EXTT7=
EXTT8=
EXTT9=
EXTT10=
EXTT11=
EXTT12=
EXTT13=
EXTT14=
EXTT15=
EXTT16=
EXTT17=
EXTT18=
EXTT19=
EXTT20=
EXTT21=
EXTT22=
EXTT23=
EXTT24=
EXTT25=
EXTT26=
EXTT27=
PLAYORDER=
